<svg width="60" height="60" viewBox="0 0 60 60" fill="none" xmlns="http://www.w3.org/2000/svg">
    <circle cx="29.9681" cy="29.9681" r="29.9681" fill="white" />
    <path
        d="M29.1756 25.7607C26.4242 25.7607 24.1788 28.006 24.1788 30.7575C24.1788 33.5089 26.4242 35.7543 29.1756 35.7543C31.927 35.7543 34.1724 33.5089 34.1724 30.7575C34.1724 28.006 31.927 25.7607 29.1756 25.7607ZM44.1623 30.7575C44.1623 28.6883 44.181 26.6378 44.0648 24.5724C43.9486 22.1733 43.4013 20.0441 41.647 18.2898C39.8889 16.5318 37.7635 15.9882 35.3645 15.872C33.2953 15.7558 31.2448 15.7746 29.1794 15.7746C27.1102 15.7746 25.0597 15.7558 22.9943 15.872C20.5952 15.9882 18.466 16.5355 16.7117 18.2898C14.9536 20.0479 14.4101 22.1733 14.2939 24.5724C14.1777 26.6416 14.1964 28.692 14.1964 30.7575C14.1964 32.8229 14.1777 34.8771 14.2939 36.9426C14.4101 39.3416 14.9574 41.4708 16.7117 43.2251C18.4698 44.9832 20.5952 45.5267 22.9943 45.6429C25.0635 45.7591 27.1139 45.7404 29.1794 45.7404C31.2486 45.7404 33.299 45.7591 35.3645 45.6429C37.7635 45.5267 39.8927 44.9795 41.647 43.2251C43.4051 41.4671 43.9486 39.3416 44.0648 36.9426C44.1848 34.8771 44.1623 32.8267 44.1623 30.7575ZM29.1756 38.4457C24.921 38.4457 21.4873 35.0121 21.4873 30.7575C21.4873 26.5029 24.921 23.0692 29.1756 23.0692C33.4302 23.0692 36.8639 26.5029 36.8639 30.7575C36.8639 35.0121 33.4302 38.4457 29.1756 38.4457ZM37.1787 24.5499C36.1854 24.5499 35.3832 23.7477 35.3832 22.7543C35.3832 21.761 36.1854 20.9588 37.1787 20.9588C38.1721 20.9588 38.9743 21.761 38.9743 22.7543C38.9746 22.9902 38.9284 23.2238 38.8382 23.4418C38.7481 23.6598 38.6158 23.8579 38.4491 24.0246C38.2823 24.1914 38.0842 24.3237 37.8662 24.4138C37.6482 24.5039 37.4146 24.5502 37.1787 24.5499Z"
        fill="#00468B" />
</svg>